<svg width="35" height="35" viewBox="0 0 35 35" fill="none" xmlns="http://www.w3.org/2000/svg">
<path d="M29.6625 13.5917L9.24583 3.38333C8.44009 2.9823 7.53027 2.83953 6.64042 2.97449C5.75058 3.10944 4.924 3.51555 4.2734 4.13745C3.6228 4.75935 3.17983 5.56678 3.00488 6.44963C2.82994 7.33249 2.93154 8.24782 3.29583 9.07083L6.79583 16.9021C6.87525 17.0914 6.91615 17.2947 6.91615 17.5C6.91615 17.7053 6.87525 17.9086 6.79583 18.0979L3.29583 25.9292C2.99935 26.5952 2.87402 27.3248 2.93122 28.0516C2.98841 28.7784 3.22633 29.4794 3.62335 30.0908C4.02036 30.7023 4.56389 31.2048 5.20453 31.5528C5.84517 31.9008 6.56262 32.0831 7.29167 32.0833C7.9745 32.0765 8.64717 31.9171 9.26042 31.6167L29.6771 21.4083C30.4013 21.044 31.01 20.4856 31.4354 19.7955C31.8607 19.1054 32.086 18.3107 32.086 17.5C32.086 16.6893 31.8607 15.8946 31.4354 15.2045C31.01 14.5143 30.4013 13.956 29.6771 13.5917H29.6625ZM28.3646 18.7979L7.94792 29.0062C7.67982 29.135 7.37877 29.1787 7.08515 29.1314C6.79152 29.0842 6.51934 28.9484 6.30512 28.7421C6.0909 28.5358 5.94487 28.2689 5.88661 27.9773C5.82835 27.6857 5.86064 27.3832 5.97917 27.1104L9.46458 19.2792C9.5097 19.1746 9.54866 19.0675 9.58125 18.9583H19.6292C20.0159 18.9583 20.3869 18.8047 20.6604 18.5312C20.9339 18.2577 21.0875 17.8868 21.0875 17.5C21.0875 17.1132 20.9339 16.7423 20.6604 16.4688C20.3869 16.1953 20.0159 16.0417 19.6292 16.0417H9.58125C9.54866 15.9325 9.5097 15.8254 9.46458 15.7208L5.97917 7.88958C5.86064 7.61682 5.82835 7.31434 5.88661 7.0227C5.94487 6.73106 6.0909 6.46421 6.30512 6.25792C6.51934 6.05163 6.79152 5.91577 7.08515 5.86855C7.37877 5.82133 7.67982 5.86502 7.94792 5.99374L28.3646 16.2021C28.6035 16.3245 28.8039 16.5104 28.9439 16.7394C29.0839 16.9684 29.158 17.2316 29.158 17.5C29.158 17.7684 29.0839 18.0316 28.9439 18.2606C28.8039 18.4896 28.6035 18.6755 28.3646 18.7979Z" fill="#B6B5C3"/>
</svg>
