<svg width="15" height="15" viewBox="0 0 15 15" fill="none" xmlns="http://www.w3.org/2000/svg">
<path d="M10.625 5.73124C10.5079 5.61484 10.3495 5.5495 10.1844 5.5495C10.0193 5.5495 9.86085 5.61484 9.74375 5.73124L7.5 7.94374L5.2875 5.73124C5.1704 5.61484 5.01199 5.5495 4.84687 5.5495C4.68176 5.5495 4.52335 5.61484 4.40625 5.73124C4.34767 5.78935 4.30117 5.85847 4.26944 5.93463C4.23771 6.0108 4.22137 6.09249 4.22137 6.17499C4.22137 6.2575 4.23771 6.33919 4.26944 6.41536C4.30117 6.49152 4.34767 6.56064 4.40625 6.61874L7.05625 9.26874C7.11435 9.32732 7.18348 9.37382 7.25964 9.40555C7.3358 9.43728 7.41749 9.45362 7.5 9.45362C7.58251 9.45362 7.6642 9.43728 7.74036 9.40555C7.81652 9.37382 7.88565 9.32732 7.94375 9.26874L10.625 6.61874C10.6836 6.56064 10.7301 6.49152 10.7618 6.41536C10.7935 6.33919 10.8099 6.2575 10.8099 6.17499C10.8099 6.09249 10.7935 6.0108 10.7618 5.93463C10.7301 5.85847 10.6836 5.78935 10.625 5.73124Z" fill="#B6B5C3"/>
</svg>
