<svg width="40" height="50" viewBox="0 0 40 50" fill="none" xmlns="http://www.w3.org/2000/svg">
<path d="M19.6109 13.0737C19.2219 13.219 18.9219 13.5565 18.8328 13.9455C18.8 14.0815 18.7812 15.858 18.7812 18.9705V23.7846L13.85 23.7987C9.44375 23.8127 8.89531 23.8221 8.75 23.8877C8.50625 24.0002 8.29531 24.1924 8.15 24.4408C8.04219 24.6237 8.02344 24.708 8.02344 25.008C8.02344 25.308 8.04219 25.3924 8.15 25.5752C8.29531 25.8237 8.50625 26.0158 8.75 26.1283C8.89531 26.194 9.44375 26.2033 13.85 26.2174L18.7812 26.2315V31.0315C18.7812 34.3221 18.7953 35.9065 18.8328 36.0705C18.8984 36.3705 19.1141 36.6565 19.4141 36.844C19.6156 36.9658 19.6813 36.9846 19.9953 36.9846C20.3 36.9846 20.3844 36.9658 20.5672 36.858C20.8156 36.7127 21.0078 36.5018 21.1203 36.258C21.1859 36.1127 21.1953 35.5643 21.2094 31.1627L21.2234 26.2315L26.1547 26.2174C30.5563 26.2033 31.1047 26.194 31.25 26.1283C31.4938 26.0158 31.7047 25.8237 31.85 25.5752C31.9578 25.3924 31.9766 25.308 31.9766 25.008C31.9766 24.708 31.9578 24.6237 31.85 24.4408C31.7047 24.1924 31.4938 24.0002 31.25 23.8877C31.1047 23.8221 30.5563 23.8127 26.1547 23.7987L21.2234 23.7846L21.2094 18.8533C21.1953 13.444 21.2141 13.7908 20.9141 13.4393C20.6141 13.083 20.0281 12.919 19.6109 13.0737Z" fill="#B6B5C3"/>
</svg>
