<svg width="36" height="36" viewBox="0 0 36 36" fill="none" xmlns="http://www.w3.org/2000/svg">
<path d="M26.032 0.104221C24.907 0.35664 24.0698 0.704803 23.0581 1.3402C22.5174 1.67966 17.4506 6.6584 17.2413 7.05878C16.936 7.64196 17.1628 8.44273 17.7384 8.82571C18.061 9.04332 18.7413 9.09554 19.0727 8.93016C19.1773 8.87794 20.407 7.71159 21.7936 6.33635C23.189 4.9611 24.5233 3.70771 24.7587 3.55974C26.4855 2.48914 28.8314 2.44562 30.6017 3.45529C33.2703 4.97851 34.1163 8.68645 32.3983 11.3151C32.1715 11.6719 30.5494 13.3518 27.6628 16.2155C23.4767 20.3673 23.2413 20.5849 22.5698 20.9331C21.5843 21.4379 20.8779 21.5859 19.7442 21.5337C18.3052 21.4727 17.2936 21.0637 16.1424 20.0801C15.6017 19.6188 15.2442 19.4969 14.7122 19.6014C14.2849 19.6797 13.7616 20.202 13.6831 20.6284C13.561 21.2464 13.6919 21.5511 14.3285 22.1691C15.4012 23.1962 17.0756 24.0143 18.6279 24.2581C19.561 24.406 21.2442 24.3277 22.1424 24.0927C23.0407 23.849 24.2529 23.2571 24.9767 22.7087C25.8401 22.0472 34.3256 13.5085 34.6831 12.9427C35.1715 12.1681 35.5116 11.4369 35.7645 10.6188C35.9826 9.90502 36 9.74835 36 8.24254C36 6.73673 35.9826 6.58006 35.7645 5.86632C34.9012 3.08102 32.9128 1.09649 30.1483 0.269598C29.4855 0.0694046 29.189 0.0345879 27.9855 0.00847626C26.9913 -0.0176353 26.4331 0.0171814 26.032 0.104221Z" fill="white"/>
<path d="M14.25 11.8025C13.0203 12.0723 11.8953 12.5946 10.9448 13.3344C10.2558 13.8654 1.68314 22.4824 1.36919 22.9524C0.93314 23.5965 0.488372 24.554 0.235465 25.3635C0.0174419 26.0772 0 26.2339 0 27.7397C0 29.2542 0.0174419 29.4022 0.244186 30.1333C0.514535 31.0298 1.09884 32.1788 1.62209 32.8577C2.79942 34.3722 4.61337 35.4863 6.56686 35.878C7.58721 36.0869 9.56686 36.0173 10.5 35.7474C11.2762 35.5298 12.4099 35.0076 13.0029 34.6072C13.5262 34.259 18.5756 29.2716 18.7587 28.9234C19.064 28.3403 18.8372 27.5395 18.2616 27.1565C17.939 26.9389 17.2587 26.8867 16.9273 27.0521C16.8227 27.1043 15.5756 28.2967 14.1628 29.6981C12.1134 31.7174 11.4767 32.3006 11.0233 32.553C8.86919 33.7281 6.20058 33.4147 4.40407 31.7871C3.88954 31.3258 3.23547 30.3074 3.00872 29.6285C2.48547 28.053 2.64244 26.3209 3.44477 24.8847C3.65407 24.5105 4.82267 23.2919 8.22384 19.8973C12.532 15.5975 12.75 15.3886 13.4302 15.0491C14.311 14.6052 15.0349 14.4224 16.0029 14.4224C17.3459 14.4224 18.5756 14.8576 19.5959 15.7019C20.2674 16.2416 20.5988 16.4244 20.9477 16.4244C21.8459 16.4244 22.4913 15.6236 22.3169 14.7097C22.2035 14.0743 20.7122 12.8731 19.3169 12.2899C18.2093 11.8286 17.6337 11.7068 16.2558 11.6719C15.2442 11.6458 14.843 11.6719 14.25 11.8025Z" fill="white"/>
</svg>
