<svg width="50" height="50" viewBox="0 0 50 50" fill="none" xmlns="http://www.w3.org/2000/svg">
<path d="M38.5742 1.48438C38.5254 1.61133 38.418 2.12891 38.3301 2.63672C37.9688 4.6875 37.3926 5.97656 36.4258 6.86524C35.7031 7.53906 34.9024 7.92969 33.5352 8.29102C32.793 8.47656 32.4414 8.61328 32.3535 8.75977C32.1289 9.10156 32.4414 9.32617 33.5449 9.61914C35.5762 10.1465 36.7285 10.9766 37.4512 12.4023C37.8223 13.1445 38.3008 14.834 38.4277 15.8496C38.5059 16.4453 38.6621 16.6992 38.9551 16.6992C39.2383 16.6992 39.336 16.5039 39.502 15.5469C40 12.666 40.8985 11.1133 42.5098 10.3125C43.1152 10.0195 44.3164 9.62891 45.2344 9.43359C45.5567 9.36524 45.7129 8.94531 45.4981 8.74024C45.4199 8.67188 44.9219 8.49609 44.3848 8.34961C41.3281 7.5293 40.2344 6.23047 39.541 2.60742C39.4238 2.01172 39.2871 1.45508 39.2383 1.38672C39.0723 1.19141 38.6817 1.25 38.5742 1.48438Z" fill="white"/>
<path d="M21.875 6.07421C21.8262 6.20116 21.7383 6.7578 21.6797 7.32421C21.6211 7.89062 21.4453 9.2578 21.2891 10.3711C19.9414 19.7851 17.7246 23.2519 11.7774 25.2344C10.4004 25.6934 8.79884 26.084 6.50392 26.5137C5.48829 26.709 4.58985 26.9141 4.52149 26.9726C4.35548 27.1094 4.35548 27.3926 4.54103 27.5391C4.61915 27.5976 5.48829 27.8027 6.46485 27.9883C11.9336 29.0234 14.707 30.1562 16.7774 32.168C19.3359 34.6484 20.5567 38.2715 21.5723 46.2988C21.7188 47.5098 21.875 48.5547 21.9141 48.6133C22.0117 48.7695 22.4121 48.7598 22.5488 48.6035C22.6074 48.5254 22.7832 47.4219 22.9492 46.1328C24.6094 32.998 27.1094 29.9902 38.0274 27.9883C39.1211 27.793 39.9024 27.5976 39.9512 27.5195C40.0684 27.3437 40.0586 26.9726 39.9414 26.9043C39.8926 26.875 39.043 26.6992 38.0567 26.5137C34.6582 25.8789 32.3145 25.1953 30.5664 24.3262C29.2383 23.6719 28.584 23.2129 27.627 22.2656C25.127 19.8047 23.8965 16.084 22.9004 8.0664C22.7637 6.94335 22.627 5.98632 22.5977 5.93749C22.5684 5.89843 22.4121 5.85937 22.2559 5.85937C22.0508 5.85937 21.9434 5.91796 21.875 6.07421Z" fill="white"/>
</svg>
